<svg width="350" height="103" viewBox="0 0 350 103" fill="none" xmlns="http://www.w3.org/2000/svg">
<path d="M18.9759 8.81818V35H14.233V13.4332H14.0795L7.95597 17.3452V12.9986L14.4631 8.81818H18.9759ZM34.7259 35.358C33.0213 35.358 31.4957 35.0384 30.1491 34.3991C28.8026 33.7514 27.733 32.8651 26.9403 31.7401C26.1563 30.6151 25.7386 29.3281 25.6875 27.8793H30.2898C30.375 28.9531 30.8395 29.831 31.6832 30.5128C32.527 31.1861 33.5412 31.5227 34.7259 31.5227C35.6548 31.5227 36.4815 31.3097 37.206 30.8835C37.9304 30.4574 38.5014 29.8651 38.919 29.1065C39.3366 28.348 39.5412 27.483 39.5327 26.5114C39.5412 25.5227 39.3324 24.6449 38.9062 23.8778C38.4801 23.1108 37.8963 22.5099 37.1548 22.0753C36.4134 21.6321 35.5611 21.4105 34.598 21.4105C33.8139 21.402 33.0426 21.5469 32.2841 21.8452C31.5256 22.1435 30.9247 22.5355 30.4815 23.0213L26.1989 22.3182L27.5668 8.81818H42.7543V12.7812H31.4915L30.7372 19.723H30.8906C31.3764 19.152 32.0625 18.679 32.9489 18.304C33.8352 17.9205 34.8068 17.7287 35.8636 17.7287C37.4489 17.7287 38.8636 18.1037 40.108 18.8537C41.3523 19.5952 42.3324 20.6179 43.0483 21.9219C43.7642 23.2259 44.1222 24.7173 44.1222 26.3963C44.1222 28.1264 43.7216 29.669 42.9205 31.0241C42.1278 32.3707 41.0241 33.4318 39.6094 34.2074C38.2031 34.9744 36.5753 35.358 34.7259 35.358ZM52.3601 35V24.0909H54.8175V25.9446H54.9453C55.1726 25.3196 55.549 24.8319 56.0746 24.4815C56.6001 24.1264 57.2275 23.9489 57.9567 23.9489C58.6953 23.9489 59.3179 24.1288 59.8246 24.4886C60.3359 24.8437 60.6958 25.3291 60.9041 25.9446H61.0178C61.2592 25.3385 61.6664 24.8556 62.2393 24.4957C62.817 24.1312 63.5012 23.9489 64.2919 23.9489C65.2957 23.9489 66.1148 24.2661 66.7493 24.9006C67.3838 25.535 67.701 26.4607 67.701 27.6776V35H65.1229V28.0753C65.1229 27.3982 64.9429 26.9034 64.5831 26.5909C64.2232 26.2737 63.7829 26.1151 63.2621 26.1151C62.6418 26.1151 62.1565 26.3092 61.8061 26.6974C61.4605 27.081 61.2876 27.5805 61.2876 28.196V35H58.7663V27.9688C58.7663 27.4053 58.5959 26.9555 58.255 26.6193C57.9188 26.2831 57.4785 26.1151 56.9339 26.1151C56.5646 26.1151 56.2285 26.2098 55.9254 26.3991C55.6224 26.5838 55.3809 26.8466 55.201 27.1875C55.0211 27.5237 54.9311 27.9167 54.9311 28.3665V35H52.3601ZM70.3093 35V24.0909H72.8803V35H70.3093ZM71.6019 22.5426C71.1947 22.5426 70.8443 22.4077 70.5508 22.1378C70.2572 21.8632 70.1104 21.5341 70.1104 21.1506C70.1104 20.7623 70.2572 20.4332 70.5508 20.1634C70.8443 19.8887 71.1947 19.7514 71.6019 19.7514C72.0138 19.7514 72.3642 19.8887 72.6531 20.1634C72.9466 20.4332 73.0934 20.7623 73.0934 21.1506C73.0934 21.5341 72.9466 21.8632 72.6531 22.1378C72.3642 22.4077 72.0138 22.5426 71.6019 22.5426ZM78.0952 28.608V35H75.5241V24.0909H77.9815V25.9446H78.1094C78.3603 25.3338 78.7604 24.8485 79.3097 24.4886C79.8636 24.1288 80.5478 23.9489 81.3622 23.9489C82.1151 23.9489 82.7708 24.1098 83.3295 24.4318C83.893 24.7538 84.3286 25.2202 84.6364 25.831C84.9489 26.4418 85.1027 27.1828 85.098 28.054V35H82.527V28.4517C82.527 27.7225 82.3376 27.152 81.9588 26.7401C81.5848 26.3281 81.0663 26.1222 80.4034 26.1222C79.9536 26.1222 79.5535 26.2216 79.2031 26.4205C78.8575 26.6146 78.5852 26.8963 78.3864 27.2656C78.1922 27.6349 78.0952 28.0824 78.0952 28.608Z" fill="white"/>
<path d="M26.2505 68.6172C26.2041 68.183 26.0086 67.8449 25.6639 67.603C25.3225 67.361 24.8784 67.2401 24.3315 67.2401C23.947 67.2401 23.6172 67.2981 23.3422 67.4141C23.0671 67.5301 22.8566 67.6875 22.7108 67.8864C22.5649 68.0852 22.4904 68.3123 22.487 68.5675C22.487 68.7796 22.5351 68.9635 22.6312 69.1193C22.7306 69.2751 22.8649 69.4077 23.0339 69.517C23.2029 69.6231 23.3902 69.7126 23.5957 69.7855C23.8012 69.8584 24.0083 69.9197 24.2172 69.9695L25.1717 70.2081C25.5562 70.2976 25.9257 70.4186 26.2804 70.571C26.6383 70.7235 26.9582 70.9157 27.2399 71.1477C27.5249 71.3797 27.7503 71.6598 27.916 71.9879C28.0817 72.3161 28.1646 72.7005 28.1646 73.1413C28.1646 73.7379 28.0121 74.2633 27.7072 74.7173C27.4023 75.1681 26.9615 75.5211 26.3848 75.7763C25.8114 76.0282 25.117 76.1541 24.3017 76.1541C23.5095 76.1541 22.8218 76.0315 22.2385 75.7862C21.6584 75.541 21.2044 75.183 20.8762 74.7124C20.5514 74.2417 20.3758 73.6683 20.3493 72.9922H22.1639C22.1904 73.3468 22.2998 73.6418 22.492 73.8771C22.6842 74.1125 22.9345 74.2881 23.2427 74.4041C23.5543 74.5201 23.9023 74.5781 24.2868 74.5781C24.6878 74.5781 25.0391 74.5185 25.3407 74.3991C25.6457 74.2765 25.8843 74.1075 26.0566 73.892C26.229 73.6733 26.3168 73.4181 26.3201 73.1264C26.3168 72.8613 26.2389 72.6425 26.0865 72.4702C25.934 72.2945 25.7202 72.1487 25.4451 72.0327C25.1734 71.9134 24.8552 71.8073 24.4906 71.7145L23.3322 71.4162C22.4937 71.2008 21.8308 70.8743 21.3436 70.4368C20.8597 69.996 20.6177 69.411 20.6177 68.6818C20.6177 68.0819 20.7801 67.5566 21.1049 67.1058C21.4331 66.6551 21.8788 66.3054 22.4423 66.0568C23.0057 65.8049 23.6438 65.679 24.3564 65.679C25.0789 65.679 25.7119 65.8049 26.2555 66.0568C26.8024 66.3054 27.2316 66.6518 27.5431 67.0959C27.8547 67.5367 28.0154 68.0438 28.0254 68.6172H26.2505ZM33.1101 76.1491C32.3445 76.1491 31.6832 75.9901 31.1264 75.6719C30.5729 75.3504 30.147 74.8963 29.8487 74.3097C29.5504 73.7197 29.4013 73.0253 29.4013 72.2266C29.4013 71.4411 29.5504 70.7517 29.8487 70.1584C30.1503 69.5618 30.5713 69.0978 31.1115 68.7663C31.6518 68.4316 32.2865 68.2642 33.0156 68.2642C33.4863 68.2642 33.9304 68.3404 34.348 68.4929C34.7689 68.642 35.1402 68.8741 35.4616 69.1889C35.7865 69.5038 36.0417 69.9048 36.2273 70.392C36.4129 70.8759 36.5057 71.4527 36.5057 72.1222V72.674H30.2464V71.4609H34.7805C34.7772 71.1162 34.7027 70.8097 34.5568 70.5412C34.411 70.2694 34.2071 70.0556 33.9453 69.8999C33.6868 69.7441 33.3852 69.6662 33.0405 69.6662C32.6726 69.6662 32.3494 69.7557 32.071 69.9347C31.7926 70.1103 31.5755 70.3423 31.4197 70.6307C31.2673 70.9157 31.1894 71.2289 31.1861 71.5703V72.6293C31.1861 73.0734 31.2673 73.4545 31.4297 73.7727C31.5921 74.0876 31.8191 74.3295 32.1108 74.4986C32.4025 74.6643 32.7438 74.7472 33.1349 74.7472C33.3968 74.7472 33.6338 74.7107 33.8459 74.6378C34.058 74.5616 34.242 74.4505 34.3977 74.3047C34.5535 74.1589 34.6712 73.9782 34.7507 73.7628L36.4311 73.9517C36.325 74.3958 36.1229 74.7836 35.8246 75.1151C35.5296 75.4432 35.1518 75.6984 34.6911 75.8807C34.2304 76.0597 33.7034 76.1491 33.1101 76.1491ZM41.3592 76.1491C40.5969 76.1491 39.9423 75.9818 39.3954 75.647C38.8519 75.3123 38.4326 74.8499 38.1376 74.2599C37.8459 73.6667 37.7001 72.9839 37.7001 72.2116C37.7001 71.4361 37.8493 70.7517 38.1475 70.1584C38.4458 69.5618 38.8668 69.0978 39.4103 68.7663C39.9572 68.4316 40.6035 68.2642 41.3493 68.2642C41.969 68.2642 42.5176 68.3786 42.9949 68.6072C43.4754 68.8326 43.8583 69.1525 44.1433 69.5668C44.4283 69.9777 44.5907 70.4583 44.6305 71.0085H42.9103C42.8407 70.6406 42.675 70.334 42.4132 70.0888C42.1547 69.8402 41.8083 69.7159 41.3741 69.7159C41.0062 69.7159 40.6831 69.8153 40.4047 70.0142C40.1262 70.2098 39.9092 70.4915 39.7534 70.8594C39.6009 71.2273 39.5247 71.6681 39.5247 72.1818C39.5247 72.7022 39.6009 73.1496 39.7534 73.5241C39.9058 73.8954 40.1196 74.1821 40.3947 74.3842C40.6731 74.5831 40.9996 74.6825 41.3741 74.6825C41.6393 74.6825 41.8762 74.6328 42.085 74.5334C42.2972 74.4306 42.4745 74.2831 42.617 74.0909C42.7595 73.8987 42.8573 73.665 42.9103 73.3899H44.6305C44.5874 73.9302 44.4283 74.4091 44.1532 74.8267C43.8781 75.241 43.5036 75.5658 43.0297 75.8011C42.5557 76.0331 41.9989 76.1491 41.3592 76.1491ZM50.9755 72.7884V68.3636H52.7752V76H51.0302V74.6428H50.9506C50.7783 75.0703 50.4949 75.42 50.1005 75.6918C49.7094 75.9635 49.2272 76.0994 48.6538 76.0994C48.1533 76.0994 47.7108 75.9884 47.3263 75.7663C46.9452 75.541 46.6469 75.2145 46.4315 74.7869C46.216 74.3561 46.1083 73.8357 46.1083 73.2259V68.3636H47.908V72.9474C47.908 73.4313 48.0406 73.8158 48.3058 74.1009C48.5709 74.3859 48.9189 74.5284 49.3498 74.5284C49.6149 74.5284 49.8718 74.4638 50.1204 74.3345C50.369 74.2053 50.5728 74.013 50.7319 73.7578C50.8943 73.4993 50.9755 73.1761 50.9755 72.7884ZM54.6259 76V68.3636H56.3709V69.6364H56.4505C56.5897 69.1955 56.8283 68.8558 57.1664 68.6172C57.5078 68.3752 57.8972 68.2543 58.3347 68.2543C58.4341 68.2543 58.5452 68.2592 58.6678 68.2692C58.7937 68.2758 58.8981 68.2874 58.981 68.304V69.9595C58.9048 69.933 58.7838 69.9098 58.6181 69.8899C58.4557 69.8667 58.2982 69.8551 58.1458 69.8551C57.8176 69.8551 57.5227 69.9264 57.2608 70.0689C57.0023 70.2081 56.7985 70.402 56.6493 70.6506C56.5002 70.8991 56.4256 71.1858 56.4256 71.5107V76H54.6259ZM60.1767 76V68.3636H61.9764V76H60.1767ZM61.0815 67.2798C60.7965 67.2798 60.5512 67.1854 60.3457 66.9964C60.1402 66.8042 60.0375 66.5739 60.0375 66.3054C60.0375 66.0336 60.1402 65.8033 60.3457 65.6143C60.5512 65.4221 60.7965 65.326 61.0815 65.326C61.3699 65.326 61.6151 65.4221 61.8173 65.6143C62.0228 65.8033 62.1255 66.0336 62.1255 66.3054C62.1255 66.5739 62.0228 66.8042 61.8173 66.9964C61.6151 67.1854 61.3699 67.2798 61.0815 67.2798ZM67.6403 68.3636V69.7557H63.2504V68.3636H67.6403ZM64.3342 66.5341H66.1339V73.7031C66.1339 73.9451 66.1703 74.1307 66.2433 74.2599C66.3195 74.3859 66.4189 74.4721 66.5415 74.5185C66.6642 74.5649 66.8001 74.5881 66.9492 74.5881C67.0619 74.5881 67.1647 74.5798 67.2575 74.5632C67.3536 74.5466 67.4265 74.5317 67.4762 74.5185L67.7795 75.9254C67.6834 75.9586 67.5458 75.995 67.3668 76.0348C67.1912 76.0746 66.9757 76.0978 66.7205 76.1044C66.2698 76.1177 65.8638 76.0497 65.5025 75.9006C65.1412 75.7481 64.8545 75.5128 64.6424 75.1946C64.4336 74.8764 64.3308 74.4787 64.3342 74.0014V66.5341ZM70.264 78.8636C70.0188 78.8636 69.7917 78.8438 69.5829 78.804C69.3774 78.7675 69.2134 78.7244 69.0907 78.6747L69.5083 77.2727C69.7702 77.349 70.0038 77.3854 70.2093 77.3821C70.4148 77.3788 70.5955 77.3142 70.7512 77.1882C70.9103 77.0656 71.0446 76.8601 71.1539 76.5717L71.3081 76.1591L68.5389 68.3636H70.448L72.2079 74.1307H72.2875L74.0524 68.3636H75.9664L72.9089 76.9247C72.7664 77.3291 72.5775 77.6754 72.3422 77.9638C72.1068 78.2554 71.8185 78.4775 71.4771 78.63C71.139 78.7857 70.7347 78.8636 70.264 78.8636Z" fill="white"/>
<path d="M156.256 76V65.8182H162.779V67.3643H158.101V70.1286H162.331V71.6747H158.101V76H156.256ZM167.15 76.1491C166.404 76.1491 165.758 75.9851 165.211 75.657C164.664 75.3288 164.24 74.8698 163.939 74.2798C163.64 73.6899 163.491 73.0005 163.491 72.2116C163.491 71.4228 163.64 70.7318 163.939 70.1385C164.24 69.5452 164.664 69.0845 165.211 68.7564C165.758 68.4283 166.404 68.2642 167.15 68.2642C167.896 68.2642 168.542 68.4283 169.089 68.7564C169.636 69.0845 170.059 69.5452 170.357 70.1385C170.658 70.7318 170.809 71.4228 170.809 72.2116C170.809 73.0005 170.658 73.6899 170.357 74.2798C170.059 74.8698 169.636 75.3288 169.089 75.657C168.542 75.9851 167.896 76.1491 167.15 76.1491ZM167.16 74.7074C167.565 74.7074 167.903 74.5964 168.174 74.3743C168.446 74.1489 168.648 73.8473 168.781 73.4695C168.917 73.0916 168.985 72.6707 168.985 72.2067C168.985 71.7393 168.917 71.3168 168.781 70.9389C168.648 70.5578 168.446 70.2545 168.174 70.0291C167.903 69.8037 167.565 69.6911 167.16 69.6911C166.746 69.6911 166.401 69.8037 166.126 70.0291C165.854 70.2545 165.65 70.5578 165.515 70.9389C165.382 71.3168 165.316 71.7393 165.316 72.2067C165.316 72.6707 165.382 73.0916 165.515 73.4695C165.65 73.8473 165.854 74.1489 166.126 74.3743C166.401 74.5964 166.746 74.7074 167.16 74.7074ZM175.668 76.1491C174.922 76.1491 174.276 75.9851 173.729 75.657C173.182 75.3288 172.758 74.8698 172.456 74.2798C172.158 73.6899 172.009 73.0005 172.009 72.2116C172.009 71.4228 172.158 70.7318 172.456 70.1385C172.758 69.5452 173.182 69.0845 173.729 68.7564C174.276 68.4283 174.922 68.2642 175.668 68.2642C176.414 68.2642 177.06 68.4283 177.607 68.7564C178.154 69.0845 178.576 69.5452 178.874 70.1385C179.176 70.7318 179.327 71.4228 179.327 72.2116C179.327 73.0005 179.176 73.6899 178.874 74.2798C178.576 74.8698 178.154 75.3288 177.607 75.657C177.06 75.9851 176.414 76.1491 175.668 76.1491ZM175.678 74.7074C176.082 74.7074 176.42 74.5964 176.692 74.3743C176.964 74.1489 177.166 73.8473 177.298 73.4695C177.434 73.0916 177.502 72.6707 177.502 72.2067C177.502 71.7393 177.434 71.3168 177.298 70.9389C177.166 70.5578 176.964 70.2545 176.692 70.0291C176.42 69.8037 176.082 69.6911 175.678 69.6911C175.263 69.6911 174.919 69.8037 174.644 70.0291C174.372 70.2545 174.168 70.5578 174.032 70.9389C173.9 71.3168 173.833 71.7393 173.833 72.2067C173.833 72.6707 173.9 73.0916 174.032 73.4695C174.168 73.8473 174.372 74.1489 174.644 74.3743C174.919 74.5964 175.263 74.7074 175.678 74.7074ZM183.688 76.1342C183.088 76.1342 182.551 75.9801 182.077 75.6719C181.603 75.3636 181.229 74.9162 180.954 74.3295C180.679 73.7429 180.541 73.0303 180.541 72.1918C180.541 71.3433 180.68 70.6274 180.959 70.044C181.241 69.4574 181.62 69.0149 182.097 68.7166C182.575 68.415 183.107 68.2642 183.693 68.2642C184.141 68.2642 184.509 68.3404 184.797 68.4929C185.085 68.642 185.314 68.8227 185.483 69.0348C185.652 69.2436 185.783 69.4408 185.876 69.6264H185.95V65.8182H187.755V76H185.985V74.7969H185.876C185.783 74.9825 185.649 75.1797 185.473 75.3885C185.297 75.594 185.065 75.7696 184.777 75.9155C184.489 76.0613 184.126 76.1342 183.688 76.1342ZM184.19 74.6577C184.571 74.6577 184.896 74.5549 185.165 74.3494C185.433 74.1406 185.637 73.8506 185.776 73.4794C185.915 73.1082 185.985 72.6757 185.985 72.1818C185.985 71.688 185.915 71.2588 185.776 70.8942C185.64 70.5296 185.438 70.2462 185.17 70.044C184.905 69.8419 184.578 69.7408 184.19 69.7408C183.789 69.7408 183.455 69.8452 183.186 70.054C182.918 70.2628 182.715 70.5511 182.58 70.919C182.444 71.2869 182.376 71.7079 182.376 72.1818C182.376 72.6591 182.444 73.085 182.58 73.4595C182.719 73.8307 182.923 74.1241 183.191 74.3395C183.463 74.5516 183.796 74.6577 184.19 74.6577Z" fill="white"/>
<path d="M273.423 67.3643V65.8182H281.547V67.3643H278.4V76H276.57V67.3643H273.423ZM285.257 76.1491C284.511 76.1491 283.865 75.9851 283.318 75.657C282.771 75.3288 282.347 74.8698 282.045 74.2798C281.747 73.6899 281.598 73.0005 281.598 72.2116C281.598 71.4228 281.747 70.7318 282.045 70.1385C282.347 69.5452 282.771 69.0845 283.318 68.7564C283.865 68.4283 284.511 68.2642 285.257 68.2642C286.002 68.2642 286.649 68.4283 287.196 68.7564C287.742 69.0845 288.165 69.5452 288.463 70.1385C288.765 70.7318 288.916 71.4228 288.916 72.2116C288.916 73.0005 288.765 73.6899 288.463 74.2798C288.165 74.8698 287.742 75.3288 287.196 75.657C286.649 75.9851 286.002 76.1491 285.257 76.1491ZM285.267 74.7074C285.671 74.7074 286.009 74.5964 286.281 74.3743C286.553 74.1489 286.755 73.8473 286.887 73.4695C287.023 73.0916 287.091 72.6707 287.091 72.2067C287.091 71.7393 287.023 71.3168 286.887 70.9389C286.755 70.5578 286.553 70.2545 286.281 70.0291C286.009 69.8037 285.671 69.6911 285.267 69.6911C284.852 69.6911 284.508 69.8037 284.233 70.0291C283.961 70.2545 283.757 70.5578 283.621 70.9389C283.488 71.3168 283.422 71.7393 283.422 72.2067C283.422 72.6707 283.488 73.0916 283.621 73.4695C283.757 73.8473 283.961 74.1489 284.233 74.3743C284.508 74.5964 284.852 74.7074 285.267 74.7074ZM300.816 69.0696C300.734 68.8011 300.619 68.5608 300.473 68.3487C300.331 68.1333 300.159 67.9493 299.956 67.7969C299.758 67.6444 299.529 67.5301 299.27 67.4538C299.012 67.3743 298.73 67.3345 298.425 67.3345C297.878 67.3345 297.391 67.4721 296.964 67.7472C296.536 68.0223 296.2 68.4266 295.954 68.9602C295.712 69.4905 295.591 70.1368 295.591 70.8991C295.591 71.6681 295.712 72.3194 295.954 72.853C296.196 73.3866 296.533 73.7926 296.964 74.071C297.394 74.3461 297.895 74.4837 298.465 74.4837C298.982 74.4837 299.429 74.3842 299.807 74.1854C300.188 73.9865 300.482 73.7048 300.687 73.3402C300.893 72.9723 300.995 72.5414 300.995 72.0476L301.413 72.1122H298.649V70.6705H302.78V71.8935C302.78 72.7652 302.595 73.5192 302.223 74.1555C301.852 74.7919 301.342 75.2824 300.692 75.6271C300.043 75.9685 299.297 76.1392 298.455 76.1392C297.517 76.1392 296.693 75.9287 295.984 75.5078C295.278 75.0836 294.726 74.482 294.329 73.7031C293.934 72.9209 293.737 71.9929 293.737 70.919C293.737 70.0971 293.853 69.3629 294.085 68.7166C294.32 68.0703 294.648 67.5218 295.069 67.071C295.49 66.617 295.984 66.2723 296.551 66.0369C297.118 65.7983 297.734 65.679 298.4 65.679C298.964 65.679 299.489 65.7618 299.976 65.9276C300.464 66.09 300.896 66.322 301.274 66.6236C301.655 66.9252 301.968 67.2831 302.214 67.6974C302.459 68.1117 302.62 68.5691 302.696 69.0696H300.816ZM306.682 76.1541C306.198 76.1541 305.762 76.0679 305.374 75.8956C304.99 75.7199 304.685 75.4614 304.459 75.12C304.237 74.7786 304.126 74.3577 304.126 73.8572C304.126 73.4264 304.206 73.0701 304.365 72.7884C304.524 72.5066 304.741 72.2812 305.016 72.1122C305.291 71.9432 305.601 71.8156 305.946 71.7294C306.294 71.6399 306.654 71.5753 307.025 71.5355C307.472 71.4891 307.835 71.4477 308.114 71.4112C308.392 71.3714 308.594 71.3118 308.72 71.2322C308.849 71.1494 308.914 71.0218 308.914 70.8494V70.8196C308.914 70.4451 308.803 70.1551 308.581 69.9496C308.359 69.7441 308.039 69.6413 307.621 69.6413C307.181 69.6413 306.831 69.7375 306.572 69.9297C306.317 70.1219 306.145 70.349 306.055 70.6108L304.375 70.3722C304.507 69.9081 304.726 69.5204 305.031 69.2088C305.336 68.8939 305.709 68.6586 306.15 68.5028C306.591 68.3438 307.078 68.2642 307.611 68.2642C307.979 68.2642 308.346 68.3073 308.71 68.3935C309.075 68.4796 309.408 68.6222 309.709 68.821C310.011 69.0166 310.253 69.2834 310.435 69.6214C310.621 69.9595 310.714 70.3821 310.714 70.8892V76H308.984V74.951H308.924C308.815 75.1631 308.66 75.362 308.462 75.5476C308.266 75.7299 308.019 75.8774 307.721 75.9901C307.426 76.0994 307.079 76.1541 306.682 76.1541ZM307.149 74.8317C307.51 74.8317 307.824 74.7604 308.089 74.6179C308.354 74.4721 308.558 74.2798 308.7 74.0412C308.846 73.8026 308.919 73.5424 308.919 73.2607V72.3608C308.863 72.4072 308.766 72.4503 308.631 72.4901C308.498 72.5298 308.349 72.5646 308.183 72.5945C308.017 72.6243 307.853 72.6508 307.691 72.674C307.529 72.6972 307.388 72.7171 307.268 72.7337C307 72.7701 306.76 72.8298 306.547 72.9126C306.335 72.9955 306.168 73.1115 306.045 73.2607C305.923 73.4065 305.861 73.5954 305.861 73.8274C305.861 74.1589 305.982 74.4091 306.224 74.5781C306.466 74.7472 306.775 74.8317 307.149 74.8317ZM316.337 68.3636V69.7557H311.947V68.3636H316.337ZM313.03 66.5341H314.83V73.7031C314.83 73.9451 314.867 74.1307 314.94 74.2599C315.016 74.3859 315.115 74.4721 315.238 74.5185C315.36 74.5649 315.496 74.5881 315.646 74.5881C315.758 74.5881 315.861 74.5798 315.954 74.5632C316.05 74.5466 316.123 74.5317 316.172 74.5185L316.476 75.9254C316.38 75.9586 316.242 75.995 316.063 76.0348C315.887 76.0746 315.672 76.0978 315.417 76.1044C314.966 76.1177 314.56 76.0497 314.199 75.9006C313.838 75.7481 313.551 75.5128 313.339 75.1946C313.13 74.8764 313.027 74.4787 313.03 74.0014V66.5341ZM321.14 76.1491C320.375 76.1491 319.714 75.9901 319.157 75.6719C318.603 75.3504 318.177 74.8963 317.879 74.3097C317.581 73.7197 317.432 73.0253 317.432 72.2266C317.432 71.4411 317.581 70.7517 317.879 70.1584C318.181 69.5618 318.602 69.0978 319.142 68.7663C319.682 68.4316 320.317 68.2642 321.046 68.2642C321.517 68.2642 321.961 68.3404 322.378 68.4929C322.799 68.642 323.17 68.8741 323.492 69.1889C323.817 69.5038 324.072 69.9048 324.258 70.392C324.443 70.8759 324.536 71.4527 324.536 72.1222V72.674H318.277V71.4609H322.811C322.807 71.1162 322.733 70.8097 322.587 70.5412C322.441 70.2694 322.237 70.0556 321.976 69.8999C321.717 69.7441 321.415 69.6662 321.071 69.6662C320.703 69.6662 320.38 69.7557 320.101 69.9347C319.823 70.1103 319.606 70.3423 319.45 70.6307C319.298 70.9157 319.22 71.2289 319.216 71.5703V72.6293C319.216 73.0734 319.298 73.4545 319.46 73.7727C319.622 74.0876 319.849 74.3295 320.141 74.4986C320.433 74.6643 320.774 74.7472 321.165 74.7472C321.427 74.7472 321.664 74.7107 321.876 74.6378C322.088 74.5616 322.272 74.4505 322.428 74.3047C322.584 74.1589 322.701 73.9782 322.781 73.7628L324.461 73.9517C324.355 74.3958 324.153 74.7836 323.855 75.1151C323.56 75.4432 323.182 75.6984 322.721 75.8807C322.261 76.0597 321.734 76.1491 321.14 76.1491Z" fill="white"/>
<path d="M139.976 8.81818V35H135.233V13.4332H135.08L128.956 17.3452V12.9986L135.463 8.81818H139.976ZM156.301 35.4986C154.196 35.4986 152.389 34.9659 150.881 33.9006C149.381 32.8267 148.226 31.2798 147.416 29.2599C146.615 27.2315 146.214 24.7898 146.214 21.9347C146.223 19.0795 146.628 16.6506 147.429 14.6477C148.239 12.6364 149.393 11.1023 150.893 10.0455C152.402 8.98864 154.205 8.46023 156.301 8.46023C158.398 8.46023 160.2 8.98864 161.709 10.0455C163.217 11.1023 164.372 12.6364 165.173 14.6477C165.983 16.6591 166.388 19.0881 166.388 21.9347C166.388 24.7983 165.983 27.2443 165.173 29.2727C164.372 31.2926 163.217 32.8352 161.709 33.9006C160.209 34.9659 158.406 35.4986 156.301 35.4986ZM156.301 31.4972C157.938 31.4972 159.229 30.6918 160.175 29.081C161.129 27.4616 161.607 25.0795 161.607 21.9347C161.607 19.8551 161.389 18.108 160.955 16.6932C160.52 15.2784 159.906 14.2131 159.114 13.4972C158.321 12.7727 157.384 12.4105 156.301 12.4105C154.673 12.4105 153.386 13.2202 152.44 14.8395C151.494 16.4503 151.017 18.8153 151.009 21.9347C151 24.0227 151.209 25.7784 151.635 27.2017C152.07 28.625 152.683 29.6989 153.476 30.4233C154.268 31.1392 155.21 31.4972 156.301 31.4972ZM174.591 35V24.0909H177.048V25.9446H177.176C177.403 25.3196 177.779 24.8319 178.305 24.4815C178.831 24.1264 179.458 23.9489 180.187 23.9489C180.926 23.9489 181.548 24.1288 182.055 24.4886C182.566 24.8437 182.926 25.3291 183.135 25.9446H183.248C183.49 25.3385 183.897 24.8556 184.47 24.4957C185.047 24.1312 185.732 23.9489 186.522 23.9489C187.526 23.9489 188.345 24.2661 188.98 24.9006C189.614 25.535 189.931 26.4607 189.931 27.6776V35H187.353V28.0753C187.353 27.3982 187.173 26.9034 186.814 26.5909C186.454 26.2737 186.013 26.1151 185.493 26.1151C184.872 26.1151 184.387 26.3092 184.037 26.6974C183.691 27.081 183.518 27.5805 183.518 28.196V35H180.997V27.9688C180.997 27.4053 180.826 26.9555 180.485 26.6193C180.149 26.2831 179.709 26.1151 179.164 26.1151C178.795 26.1151 178.459 26.2098 178.156 26.3991C177.853 26.5838 177.611 26.8466 177.431 27.1875C177.252 27.5237 177.162 27.9167 177.162 28.3665V35H174.591ZM192.54 35V24.0909H195.111V35H192.54ZM193.832 22.5426C193.425 22.5426 193.075 22.4077 192.781 22.1378C192.488 21.8632 192.341 21.5341 192.341 21.1506C192.341 20.7623 192.488 20.4332 192.781 20.1634C193.075 19.8887 193.425 19.7514 193.832 19.7514C194.244 19.7514 194.595 19.8887 194.884 20.1634C195.177 20.4332 195.324 20.7623 195.324 21.1506C195.324 21.5341 195.177 21.8632 194.884 22.1378C194.595 22.4077 194.244 22.5426 193.832 22.5426ZM200.326 28.608V35H197.755V24.0909H200.212V25.9446H200.34C200.591 25.3338 200.991 24.8485 201.54 24.4886C202.094 24.1288 202.778 23.9489 203.593 23.9489C204.346 23.9489 205.001 24.1098 205.56 24.4318C206.123 24.7538 206.559 25.2202 206.867 25.831C207.179 26.4418 207.333 27.1828 207.328 28.054V35H204.757V28.4517C204.757 27.7225 204.568 27.152 204.189 26.7401C203.815 26.3281 203.297 26.1222 202.634 26.1222C202.184 26.1222 201.784 26.2216 201.434 26.4205C201.088 26.6146 200.816 26.8963 200.617 27.2656C200.423 27.6349 200.326 28.0824 200.326 28.608Z" fill="white"/>
<path d="M256.327 35V31.5739L265.416 22.6634C266.286 21.7855 267.01 21.0057 267.589 20.3239C268.169 19.642 268.604 18.9815 268.893 18.3423C269.183 17.7031 269.328 17.0213 269.328 16.2969C269.328 15.4702 269.141 14.7628 268.766 14.1747C268.391 13.5781 267.875 13.1179 267.219 12.794C266.562 12.4702 265.817 12.3082 264.982 12.3082C264.121 12.3082 263.366 12.4872 262.719 12.8452C262.071 13.1946 261.568 13.6932 261.21 14.3409C260.861 14.9886 260.686 15.7599 260.686 16.6548H256.173C256.173 14.9929 256.553 13.5483 257.311 12.321C258.07 11.0937 259.114 10.1435 260.443 9.47017C261.781 8.79687 263.315 8.46023 265.045 8.46023C266.801 8.46023 268.344 8.78835 269.673 9.4446C271.003 10.1009 272.034 11 272.767 12.142C273.509 13.2841 273.879 14.5881 273.879 16.054C273.879 17.0341 273.692 17.9972 273.317 18.9432C272.942 19.8892 272.281 20.9375 271.335 22.0881C270.398 23.2386 269.081 24.6321 267.385 26.2685L262.872 30.858V31.0369H274.276V35H256.327ZM288.364 35.4986C286.259 35.4986 284.452 34.9659 282.943 33.9006C281.443 32.8267 280.288 31.2798 279.479 29.2599C278.678 27.2315 278.277 24.7898 278.277 21.9347C278.286 19.0795 278.69 16.6506 279.491 14.6477C280.301 12.6364 281.456 11.1023 282.956 10.0455C284.464 8.98864 286.267 8.46023 288.364 8.46023C290.46 8.46023 292.263 8.98864 293.771 10.0455C295.28 11.1023 296.435 12.6364 297.236 14.6477C298.045 16.6591 298.45 19.0881 298.45 21.9347C298.45 24.7983 298.045 27.2443 297.236 29.2727C296.435 31.2926 295.28 32.8352 293.771 33.9006C292.271 34.9659 290.469 35.4986 288.364 35.4986ZM288.364 31.4972C290 31.4972 291.291 30.6918 292.237 29.081C293.192 27.4616 293.669 25.0795 293.669 21.9347C293.669 19.8551 293.452 18.108 293.017 16.6932C292.582 15.2784 291.969 14.2131 291.176 13.4972C290.384 12.7727 289.446 12.4105 288.364 12.4105C286.736 12.4105 285.449 13.2202 284.503 14.8395C283.557 16.4503 283.08 18.8153 283.071 21.9347C283.063 24.0227 283.271 25.7784 283.697 27.2017C284.132 28.625 284.746 29.6989 285.538 30.4233C286.331 31.1392 287.273 31.4972 288.364 31.4972ZM306.653 35V24.0909H309.11V25.9446H309.238C309.466 25.3196 309.842 24.8319 310.368 24.4815C310.893 24.1264 311.52 23.9489 312.25 23.9489C312.988 23.9489 313.611 24.1288 314.118 24.4886C314.629 24.8437 314.989 25.3291 315.197 25.9446H315.311C315.552 25.3385 315.959 24.8556 316.532 24.4957C317.11 24.1312 317.794 23.9489 318.585 23.9489C319.589 23.9489 320.408 24.2661 321.042 24.9006C321.677 25.535 321.994 26.4607 321.994 27.6776V35H319.416V28.0753C319.416 27.3982 319.236 26.9034 318.876 26.5909C318.516 26.2737 318.076 26.1151 317.555 26.1151C316.935 26.1151 316.449 26.3092 316.099 26.6974C315.753 27.081 315.581 27.5805 315.581 28.196V35H313.059V27.9688C313.059 27.4053 312.889 26.9555 312.548 26.6193C312.212 26.2831 311.771 26.1151 311.227 26.1151C310.858 26.1151 310.521 26.2098 310.218 26.3991C309.915 26.5838 309.674 26.8466 309.494 27.1875C309.314 27.5237 309.224 27.9167 309.224 28.3665V35H306.653ZM324.602 35V24.0909H327.173V35H324.602ZM325.895 22.5426C325.488 22.5426 325.137 22.4077 324.844 22.1378C324.55 21.8632 324.403 21.5341 324.403 21.1506C324.403 20.7623 324.55 20.4332 324.844 20.1634C325.137 19.8887 325.488 19.7514 325.895 19.7514C326.307 19.7514 326.657 19.8887 326.946 20.1634C327.24 20.4332 327.386 20.7623 327.386 21.1506C327.386 21.5341 327.24 21.8632 326.946 22.1378C326.657 22.4077 326.307 22.5426 325.895 22.5426ZM332.388 28.608V35H329.817V24.0909H332.275V25.9446H332.402C332.653 25.3338 333.053 24.8485 333.603 24.4886C334.157 24.1288 334.841 23.9489 335.655 23.9489C336.408 23.9489 337.064 24.1098 337.623 24.4318C338.186 24.7538 338.622 25.2202 338.929 25.831C339.242 26.4418 339.396 27.1828 339.391 28.054V35H336.82V28.4517C336.82 27.7225 336.631 27.152 336.252 26.7401C335.878 26.3281 335.359 26.1222 334.696 26.1222C334.247 26.1222 333.846 26.2216 333.496 26.4205C333.15 26.6146 332.878 26.8963 332.679 27.2656C332.485 27.6349 332.388 28.0824 332.388 28.608Z" fill="white"/>
<line x1="4.37114e-08" y1="54.5" x2="350" y2="54.5" stroke="url(#paint0_linear_1033_66)"/>
<circle cx="38" cy="54" r="4" fill="white"/>
<defs>
<linearGradient id="paint0_linear_1033_66" x1="350" y1="55" x2="0" y2="55" gradientUnits="userSpaceOnUse">
<stop stop-color="white" stop-opacity="0"/>
<stop offset="0.911175" stop-color="white"/>
<stop offset="1" stop-color="white" stop-opacity="0"/>
</linearGradient>
</defs>
</svg>
