<svg width="48" height="48" viewBox="0 0 48 48" fill="none" xmlns="http://www.w3.org/2000/svg">
<path d="M34.0735 28.105C32.0379 31.176 29.832 34.1306 27.466 36.955C27.2065 37.2538 26.8728 37.4789 26.4985 37.6075V47.275L35.596 44.0275L34.0735 28.105ZM24.031 36.9475C21.6624 34.1279 19.4563 31.1756 17.4235 28.105L15.9235 44.0275L24.9985 47.275V37.6075C24.6222 37.4791 24.2879 37.251 24.031 36.9475ZM37.1035 44.1025L46.4935 47.455C46.6189 47.5033 46.7549 47.5171 46.8874 47.4948C47.0199 47.4726 47.144 47.4151 47.2467 47.3285C47.3494 47.2419 47.4269 47.1293 47.4712 47.0025C47.5155 46.8756 47.5249 46.7392 47.4985 46.6075L44.4985 30.8575C44.4744 30.7362 44.4207 30.6228 44.3422 30.5272C44.2637 30.4317 44.1628 30.3571 44.0485 30.31L35.4535 26.7325L37.1035 44.1025ZM5.0035 47.455L14.3935 44.1025L16.0435 26.7325L7.4635 30.31C7.34917 30.3571 7.24826 30.4317 7.16975 30.5272C7.09124 30.6228 7.03756 30.7362 7.0135 30.8575L4.0135 46.6075C3.9885 46.7375 3.99835 46.8718 4.04204 46.9967C4.08573 47.1217 4.16171 47.2328 4.26226 47.3189C4.36281 47.405 4.48435 47.4629 4.61454 47.4868C4.74473 47.5107 4.87892 47.4997 5.0035 47.455ZM26.3185 35.9875C26.791 35.4325 37.7485 22.4125 37.7485 16C37.7485 12.8174 36.4842 9.76516 34.2338 7.51472C31.9833 5.26428 28.9311 4 25.7485 4C22.5659 4 19.5136 5.26428 17.2632 7.51472C15.0128 9.76516 13.7485 12.8174 13.7485 16C13.7485 22.4125 24.706 35.4325 25.1785 35.9875C25.2489 36.0698 25.3363 36.1359 25.4347 36.1813C25.5331 36.2266 25.6402 36.2501 25.7485 36.2501C25.8568 36.2501 25.9639 36.2266 26.0623 36.1813C26.1607 36.1359 26.2481 36.0698 26.3185 35.9875ZM20.4985 16C20.4985 14.9616 20.8064 13.9466 21.3833 13.0833C21.9602 12.2199 22.7801 11.547 23.7394 11.1496C24.6987 10.7523 25.7543 10.6483 26.7727 10.8509C27.7911 11.0535 28.7266 11.5535 29.4608 12.2877C30.195 13.0219 30.695 13.9574 30.8976 14.9758C31.1002 15.9942 30.9962 17.0498 30.5989 18.0091C30.2015 18.9684 29.5286 19.7883 28.6652 20.3652C27.8019 20.9421 26.7868 21.25 25.7485 21.25C24.3561 21.25 23.0208 20.6969 22.0362 19.7123C21.0516 18.7277 20.4985 17.3924 20.4985 16Z" fill="#1F3CAD"/>
</svg>
