<svg width="56" height="56" viewBox="0 0 56 56" fill="none" xmlns="http://www.w3.org/2000/svg">
<g clip-path="url(#clip0_258_16)">
<path d="M45.6821 47.8405H10.8498C9.72286 47.8405 8.80083 48.7764 8.80083 49.9203C8.80083 51.0641 9.72286 52 10.8498 52H45.6821C46.809 52 47.731 51.0641 47.731 49.9203C47.731 48.7764 46.809 47.8405 45.6821 47.8405ZM48.8989 28.3741C48.4482 26.7103 46.768 25.7329 45.1288 26.1696L34.2489 29.1228L21.0126 16.6028C20.4594 16.0621 19.6603 15.8749 18.9227 16.0829C17.5294 16.478 16.8737 18.1002 17.5909 19.3689L24.6393 31.7641L14.456 34.5302L11.2391 31.9513C10.7268 31.5561 10.0712 31.4106 9.436 31.5769L8.75985 31.7641C8.10418 31.9305 7.79684 32.7 8.14516 33.2823L11.9972 40.0415C12.4685 40.8526 13.411 41.2477 14.292 41.019L46.7065 32.2009C48.3457 31.7433 49.3292 30.0379 48.8989 28.3741Z" fill="#1F3CAD"/>
</g>
<defs>
<clipPath id="clip0_258_16">
<rect width="56" height="56" fill="white"/>
</clipPath>
</defs>
</svg>
